<?xml version="1.0" encoding="UTF-8"?>
<svg id="Layer_2" data-name="Layer 2" xmlns="http://www.w3.org/2000/svg" viewBox="0 0 105.96 115.25">
  <defs>
    <style>
      .cls-1 {
        fill: none;
      }

      .cls-1, .cls-2 {
        stroke: #000;
        stroke-miterlimit: 10;
        stroke-width: 6px;
      }
    </style>
  </defs>
  <g id="Layer_1-2" data-name="Layer 1">
    <g>
      <path d="m58.24,36.76c.71,0,1.16.23,1.36.38.21,6.46,6.12,11.66,13.35,11.66h.98c.7,0,1.15.22,1.36.37v24.97c-.21.15-.66.37-1.36.37H26.85c-.7,0-1.15-.22-1.36-.37v-24.97c.21-.15.66-.37,1.36-.37h.98c7.23,0,13.14-5.2,13.35-11.66.2-.15.66-.38,1.36-.38h15.69m0-6h-15.69c-4.06,0-7.36,2.69-7.36,6.02h0c0,3.32-3.29,6.02-7.36,6.02h-.98c-4.06,0-7.36,2.69-7.36,6.02v25.68c0,3.32,3.29,6.02,7.36,6.02h47.08c4.06,0,7.36-2.69,7.36-6.02v-25.68c0-3.32-3.29-6.02-7.36-6.02h-.98c-4.06,0-7.36-2.69-7.36-6.02h0c0-3.32-3.29-6.02-7.36-6.02h0Z"/>
      <path d="m50.8,48.8c4.66,0,8.45,3.79,8.45,8.45s-3.79,8.45-8.45,8.45-8.45-3.79-8.45-8.45,3.79-8.45,8.45-8.45m0-6c-7.98,0-14.45,6.47-14.45,14.45s6.47,14.45,14.45,14.45,14.45-6.47,14.45-14.45-6.47-14.45-14.45-14.45h0Z"/>
      <g>
        <path class="cls-1" d="m102.96,55.73c0-23.26-18.85-42.11-42.11-42.11-.51,0-1.02.02-1.53.04"/>
        <polygon class="cls-2" points="45.11 13.4 59.32 21.6 59.32 5.2 45.11 13.4"/>
      </g>
      <g>
        <path class="cls-1" d="m3,59.52c0,23.26,18.85,42.11,42.11,42.11.51,0,1.02-.02,1.53-.04"/>
        <polygon class="cls-2" points="60.85 101.85 46.64 93.64 46.64 110.05 60.85 101.85"/>
      </g>
    </g>
  </g>
</svg>